<svg xmlns="http://www.w3.org/2000/svg" style="display:none">
  <symbol id="home" viewBox="0 0 24 24"><path d="M3.5 10.5 12 3l8.5 7.5v9a1.5 1.5 0 0 1-1.5 1.5h-5v-6h-4v6H5a1.5 1.5 0 0 1-1.5-1.5z" fill="none" stroke="currentColor" stroke-width="1.8" stroke-linecap="round" stroke-linejoin="round"/></symbol>
  <symbol id="nutrition" viewBox="0 0 24 24"><path d="M4 5.5h16M4 12h16M4 18.5h16M7 3v5M12 9.5v5M17 16v5" fill="none" stroke="currentColor" stroke-width="1.8" stroke-linecap="round"/></symbol>
  <symbol id="note" viewBox="0 0 24 24"><path d="M5 3.5h10.5L19 7v13.5H5zM15.5 3.5V7H19M8 11h8M8 14.5h8M8 18h5" fill="none" stroke="currentColor" stroke-width="1.8" stroke-linecap="round" stroke-linejoin="round"/></symbol>
  <symbol id="profile" viewBox="0 0 24 24"><circle cx="12" cy="7.5" r="3.5" fill="none" stroke="currentColor" stroke-width="1.8"/><path d="M4.5 21c.5-5 3.1-7.5 7.5-7.5s7 2.5 7.5 7.5" fill="none" stroke="currentColor" stroke-width="1.8" stroke-linecap="round"/></symbol>
  <symbol id="save" viewBox="0 0 24 24"><path d="M5 4h12l2 2v14H5zM8 4v5h8V4M8 20v-7h8v7" fill="none" stroke="currentColor" stroke-width="1.8" stroke-linejoin="round"/></symbol>
  <symbol id="trash" viewBox="0 0 24 24"><path d="M4 7h16M9 7V4h6v3M7 7l1 13h8l1-13M10 11v5M14 11v5" fill="none" stroke="currentColor" stroke-width="1.8" stroke-linecap="round" stroke-linejoin="round"/></symbol>
  <symbol id="edit" viewBox="0 0 24 24"><path d="m5 17.5-.5 3 3-.5L18.8 8.7l-2.5-2.5zM14.8 7.7l2.5 2.5" fill="none" stroke="currentColor" stroke-width="1.8" stroke-linecap="round" stroke-linejoin="round"/></symbol>
  <symbol id="plus" viewBox="0 0 24 24"><path d="M12 5v14M5 12h14" fill="none" stroke="currentColor" stroke-width="2" stroke-linecap="round"/></symbol>
  <symbol id="minus" viewBox="0 0 24 24"><path d="M5 12h14" fill="none" stroke="currentColor" stroke-width="2" stroke-linecap="round"/></symbol>
  <symbol id="chevron-left" viewBox="0 0 24 24"><path d="m15 5-7 7 7 7" fill="none" stroke="currentColor" stroke-width="1.9" stroke-linecap="round" stroke-linejoin="round"/></symbol>
  <symbol id="chevron-right" viewBox="0 0 24 24"><path d="m9 5 7 7-7 7" fill="none" stroke="currentColor" stroke-width="1.9" stroke-linecap="round" stroke-linejoin="round"/></symbol>
  <symbol id="dumbbell" viewBox="0 0 24 24"><path d="M3 9v6M6 7v10M18 7v10M21 9v6M6 12h12" fill="none" stroke="currentColor" stroke-width="1.8" stroke-linecap="round"/></symbol>
  <symbol id="water" viewBox="0 0 24 24"><path d="M12 3s6 6.3 6 11a6 6 0 1 1-12 0c0-4.7 6-11 6-11Z" fill="none" stroke="currentColor" stroke-width="1.8" stroke-linejoin="round"/><path d="M9 16.5c.8 1 1.8 1.5 3 1.5" fill="none" stroke="currentColor" stroke-width="1.8" stroke-linecap="round"/></symbol>
  <symbol id="scale" viewBox="0 0 24 24"><rect x="4" y="4" width="16" height="16" rx="4" fill="none" stroke="currentColor" stroke-width="1.8"/><path d="M8 10a4 4 0 0 1 8 0M12 10l2-2" fill="none" stroke="currentColor" stroke-width="1.8" stroke-linecap="round"/></symbol>
  <symbol id="target" viewBox="0 0 24 24"><circle cx="12" cy="12" r="8" fill="none" stroke="currentColor" stroke-width="1.8"/><circle cx="12" cy="12" r="4" fill="none" stroke="currentColor" stroke-width="1.8"/><path d="M12 12 20 4" fill="none" stroke="currentColor" stroke-width="1.8" stroke-linecap="round"/></symbol>
  <symbol id="spark" viewBox="0 0 24 24"><path d="M12 3l1.4 5.6L19 10l-5.6 1.4L12 17l-1.4-5.6L5 10l5.6-1.4zM19 16l.7 2.3L22 19l-2.3.7L19 22l-.7-2.3L16 19l2.3-.7z" fill="none" stroke="currentColor" stroke-width="1.6" stroke-linejoin="round"/></symbol>
  <symbol id="check" viewBox="0 0 24 24"><path d="m5 12.5 4.2 4.2L19 7" fill="none" stroke="currentColor" stroke-width="2" stroke-linecap="round" stroke-linejoin="round"/></symbol>
  <symbol id="zoom-in" viewBox="0 0 24 24"><circle cx="10.5" cy="10.5" r="6.5" fill="none" stroke="currentColor" stroke-width="1.8"/><path d="m15.5 15.5 5 5M10.5 7.5v6M7.5 10.5h6" fill="none" stroke="currentColor" stroke-width="1.8" stroke-linecap="round"/></symbol>
  <symbol id="zoom-out" viewBox="0 0 24 24"><circle cx="10.5" cy="10.5" r="6.5" fill="none" stroke="currentColor" stroke-width="1.8"/><path d="m15.5 15.5 5 5M7.5 10.5h6" fill="none" stroke="currentColor" stroke-width="1.8" stroke-linecap="round"/></symbol>
</svg>
